<?xml version="1.0" standalone="no"?>
<!DOCTYPE svg PUBLIC "-//W3C//DTD SVG 20010904//EN"
 "http://www.w3.org/TR/2001/REC-SVG-20010904/DTD/svg10.dtd">
<svg version="1.0" xmlns="http://www.w3.org/2000/svg"
 width="100.000000pt" height="100.000000pt" viewBox="0 0 100.000000 100.000000"
 preserveAspectRatio="xMidYMid meet">
<metadata>
Created by potrace 1.11, written by Peter Selinger 2001-2013
</metadata>
<g transform="translate(0.000000,100.000000) scale(0.100000,-0.100000)"
fill="#000000" stroke="none">
<path d="M318 977 c-86 -33 -139 -101 -243 -311 -58 -117 -72 -153 -64 -168
20 -36 63 -17 94 41 24 47 196 144 276 157 67 11 98 54 63 88 -23 24 -80 19
-159 -13 -38 -16 -72 -27 -74 -25 -3 2 13 30 35 62 51 75 107 105 179 96 60
-7 99 -26 142 -67 l32 -30 -68 -76 c-85 -95 -187 -232 -212 -286 -45 -97 -47
-203 -5 -306 14 -36 26 -74 26 -85 0 -40 36 -61 68 -38 30 21 92 119 125 198
25 59 31 92 38 196 9 130 24 195 64 286 16 37 32 57 50 64 14 5 44 18 68 29
23 10 83 36 132 56 94 40 113 51 103 61 -3 3 -89 7 -190 10 -179 5 -184 5
-245 35 -75 36 -177 47 -235 26z"/>
</g>
</svg>
