<?xml version="1.0" standalone="no"?>
<!DOCTYPE svg PUBLIC "-//W3C//DTD SVG 20010904//EN"
 "http://www.w3.org/TR/2001/REC-SVG-20010904/DTD/svg10.dtd">
<svg version="1.0" xmlns="http://www.w3.org/2000/svg"
 width="261.000000pt" height="261.000000pt" viewBox="0 0 261.000000 261.000000"
 preserveAspectRatio="xMidYMid meet">
<metadata>
Created by potrace 1.11, written by Peter Selinger 2001-2013
</metadata>
<g transform="translate(0.000000,261.000000) scale(0.100000,-0.100000)"
fill="#000000" stroke="none">
<path d="M1199 2217 c-19 -7 -181 -97 -360 -201 -178 -104 -336 -196 -351
-204 -15 -9 -29 -25 -32 -36 -3 -12 -6 -110 -6 -218 0 -216 -4 -202 66 -244
14 -8 -25 -35 -245 -163 -144 -85 -260 -159 -258 -165 5 -16 89 -64 114 -65
12 -1 68 27 125 60 57 34 119 71 138 81 19 11 87 51 151 89 64 38 122 69 128
69 6 0 52 -23 101 -51 l90 -51 -202 -119 c-112 -66 -204 -125 -206 -133 -3
-14 76 -66 107 -70 9 -2 32 6 51 17 37 20 304 177 355 208 29 17 30 17 70 -4
22 -12 42 -24 45 -27 3 -3 25 -16 50 -29 25 -13 48 -27 53 -31 4 -3 -141 -93
-323 -200 -181 -107 -330 -199 -330 -206 0 -16 87 -66 115 -66 13 0 72 29 132
64 325 194 541 318 551 318 14 0 192 -102 192 -110 0 -3 -51 -34 -112 -70 -61
-36 -132 -77 -157 -93 -25 -15 -56 -33 -68 -39 -13 -6 -23 -18 -23 -27 0 -16
86 -71 110 -71 11 0 62 28 305 170 l90 52 46 -26 c56 -31 115 -34 167 -7 20
10 95 53 165 95 71 42 130 76 132 76 2 0 40 23 85 50 45 27 83 50 85 50 8 0
211 123 228 137 15 14 17 38 17 222 0 113 -4 211 -8 217 -5 9 -358 217 -566
334 -17 9 -112 64 -211 122 -99 57 -200 116 -225 130 -25 14 -96 55 -158 91
-143 84 -167 92 -223 74z"/>
<path d="M253 752 c-35 -20 -63 -44 -63 -52 0 -9 25 -29 55 -45 l55 -30 66 35
c72 38 86 51 76 66 -10 15 -98 64 -114 64 -7 -1 -41 -18 -75 -38z"/>
</g>
</svg>
